<mxfile host="app.diagrams.net" agent="Mozilla/5.0 (Macintosh; Intel Mac OS X 10_15_7) AppleWebKit/537.36 (KHTML, like Gecko) Chrome/126.0.0.0 Whale/3.27.254.15 Safari/537.36" version="26.0.6">
  <diagram name="페이지-1" id="TpMk4SV4jNbYeq_rbaHF">
    <mxGraphModel dx="524" dy="1822" grid="1" gridSize="10" guides="1" tooltips="1" connect="1" arrows="1" fold="1" page="1" pageScale="1" pageWidth="1169" pageHeight="827" math="0" shadow="0">
      <root>
        <mxCell id="0" />
        <mxCell id="1" parent="0" />
        <mxCell id="Nu1wtj4-nATQzFPG6_Lj-16" value="" style="rounded=0;whiteSpace=wrap;html=1;" parent="1" vertex="1">
          <mxGeometry x="400" y="160" width="180" height="310" as="geometry" />
        </mxCell>
        <mxCell id="Nu1wtj4-nATQzFPG6_Lj-1" value="" style="rounded=0;whiteSpace=wrap;html=1;" parent="1" vertex="1">
          <mxGeometry x="80" y="160" width="180" height="190" as="geometry" />
        </mxCell>
        <mxCell id="Nu1wtj4-nATQzFPG6_Lj-18" style="rounded=0;orthogonalLoop=1;jettySize=auto;html=1;entryX=0;entryY=0.5;entryDx=0;entryDy=0;" parent="1" source="Nu1wtj4-nATQzFPG6_Lj-2" target="Nu1wtj4-nATQzFPG6_Lj-8" edge="1">
          <mxGeometry relative="1" as="geometry" />
        </mxCell>
        <mxCell id="Nu1wtj4-nATQzFPG6_Lj-19" style="rounded=0;orthogonalLoop=1;jettySize=auto;html=1;entryX=0;entryY=0.5;entryDx=0;entryDy=0;" parent="1" source="Nu1wtj4-nATQzFPG6_Lj-2" target="Nu1wtj4-nATQzFPG6_Lj-9" edge="1">
          <mxGeometry relative="1" as="geometry" />
        </mxCell>
        <mxCell id="Nu1wtj4-nATQzFPG6_Lj-2" value="consumer-1" style="rounded=1;whiteSpace=wrap;html=1;fillColor=#dae8fc;strokeColor=#6c8ebf;" parent="1" vertex="1">
          <mxGeometry x="110" y="210" width="120" height="30" as="geometry" />
        </mxCell>
        <mxCell id="Nu1wtj4-nATQzFPG6_Lj-20" style="rounded=0;orthogonalLoop=1;jettySize=auto;html=1;entryX=0;entryY=0.5;entryDx=0;entryDy=0;exitX=1;exitY=0.25;exitDx=0;exitDy=0;" parent="1" source="Nu1wtj4-nATQzFPG6_Lj-3" target="Nu1wtj4-nATQzFPG6_Lj-10" edge="1">
          <mxGeometry relative="1" as="geometry" />
        </mxCell>
        <mxCell id="Nu1wtj4-nATQzFPG6_Lj-21" style="rounded=0;orthogonalLoop=1;jettySize=auto;html=1;entryX=0;entryY=0.5;entryDx=0;entryDy=0;exitX=1;exitY=0.5;exitDx=0;exitDy=0;" parent="1" source="Nu1wtj4-nATQzFPG6_Lj-3" target="Nu1wtj4-nATQzFPG6_Lj-11" edge="1">
          <mxGeometry relative="1" as="geometry" />
        </mxCell>
        <mxCell id="Nu1wtj4-nATQzFPG6_Lj-3" value="consumer-2" style="rounded=1;whiteSpace=wrap;html=1;fillColor=#dae8fc;strokeColor=#6c8ebf;" parent="1" vertex="1">
          <mxGeometry x="110" y="240" width="120" height="30" as="geometry" />
        </mxCell>
        <mxCell id="Nu1wtj4-nATQzFPG6_Lj-22" style="rounded=0;orthogonalLoop=1;jettySize=auto;html=1;entryX=0;entryY=0.5;entryDx=0;entryDy=0;exitX=1;exitY=0.25;exitDx=0;exitDy=0;" parent="1" source="Nu1wtj4-nATQzFPG6_Lj-4" target="Nu1wtj4-nATQzFPG6_Lj-12" edge="1">
          <mxGeometry relative="1" as="geometry" />
        </mxCell>
        <mxCell id="Nu1wtj4-nATQzFPG6_Lj-23" style="rounded=0;orthogonalLoop=1;jettySize=auto;html=1;entryX=0;entryY=0.5;entryDx=0;entryDy=0;exitX=1;exitY=0.75;exitDx=0;exitDy=0;" parent="1" source="Nu1wtj4-nATQzFPG6_Lj-4" target="Nu1wtj4-nATQzFPG6_Lj-13" edge="1">
          <mxGeometry relative="1" as="geometry" />
        </mxCell>
        <mxCell id="Nu1wtj4-nATQzFPG6_Lj-4" value="consumer-3" style="rounded=1;whiteSpace=wrap;html=1;fillColor=#dae8fc;strokeColor=#6c8ebf;" parent="1" vertex="1">
          <mxGeometry x="110" y="270" width="120" height="30" as="geometry" />
        </mxCell>
        <mxCell id="Nu1wtj4-nATQzFPG6_Lj-24" style="rounded=0;orthogonalLoop=1;jettySize=auto;html=1;entryX=0;entryY=0.5;entryDx=0;entryDy=0;exitX=1;exitY=0.25;exitDx=0;exitDy=0;" parent="1" source="Nu1wtj4-nATQzFPG6_Lj-5" target="Nu1wtj4-nATQzFPG6_Lj-14" edge="1">
          <mxGeometry relative="1" as="geometry" />
        </mxCell>
        <mxCell id="Nu1wtj4-nATQzFPG6_Lj-25" style="rounded=0;orthogonalLoop=1;jettySize=auto;html=1;entryX=0;entryY=0.5;entryDx=0;entryDy=0;exitX=1;exitY=0.75;exitDx=0;exitDy=0;" parent="1" source="Nu1wtj4-nATQzFPG6_Lj-5" target="Nu1wtj4-nATQzFPG6_Lj-15" edge="1">
          <mxGeometry relative="1" as="geometry" />
        </mxCell>
        <mxCell id="Nu1wtj4-nATQzFPG6_Lj-5" value="consumer-4" style="rounded=1;whiteSpace=wrap;html=1;fillColor=#dae8fc;strokeColor=#6c8ebf;" parent="1" vertex="1">
          <mxGeometry x="110" y="300" width="120" height="30" as="geometry" />
        </mxCell>
        <mxCell id="Nu1wtj4-nATQzFPG6_Lj-6" value="group.id = consumer-group-2" style="text;html=1;align=center;verticalAlign=middle;whiteSpace=wrap;rounded=0;" parent="1" vertex="1">
          <mxGeometry x="80" y="170" width="180" height="30" as="geometry" />
        </mxCell>
        <mxCell id="Nu1wtj4-nATQzFPG6_Lj-8" value="partition-0" style="rounded=1;whiteSpace=wrap;html=1;fillColor=#d5e8d4;strokeColor=#82b366;" parent="1" vertex="1">
          <mxGeometry x="430" y="210" width="120" height="30" as="geometry" />
        </mxCell>
        <mxCell id="Nu1wtj4-nATQzFPG6_Lj-9" value="partition-1" style="rounded=1;whiteSpace=wrap;html=1;fillColor=#d5e8d4;strokeColor=#82b366;" parent="1" vertex="1">
          <mxGeometry x="430" y="240" width="120" height="30" as="geometry" />
        </mxCell>
        <mxCell id="Nu1wtj4-nATQzFPG6_Lj-10" value="partition-2" style="rounded=1;whiteSpace=wrap;html=1;fillColor=#d5e8d4;strokeColor=#82b366;" parent="1" vertex="1">
          <mxGeometry x="430" y="270" width="120" height="30" as="geometry" />
        </mxCell>
        <mxCell id="Nu1wtj4-nATQzFPG6_Lj-11" value="partition-3" style="rounded=1;whiteSpace=wrap;html=1;fillColor=#d5e8d4;strokeColor=#82b366;" parent="1" vertex="1">
          <mxGeometry x="430" y="300" width="120" height="30" as="geometry" />
        </mxCell>
        <mxCell id="Nu1wtj4-nATQzFPG6_Lj-12" value="partition-4" style="rounded=1;whiteSpace=wrap;html=1;fillColor=#d5e8d4;strokeColor=#82b366;" parent="1" vertex="1">
          <mxGeometry x="430" y="330" width="120" height="30" as="geometry" />
        </mxCell>
        <mxCell id="Nu1wtj4-nATQzFPG6_Lj-13" value="partition-5" style="rounded=1;whiteSpace=wrap;html=1;fillColor=#d5e8d4;strokeColor=#82b366;" parent="1" vertex="1">
          <mxGeometry x="430" y="360" width="120" height="30" as="geometry" />
        </mxCell>
        <mxCell id="Nu1wtj4-nATQzFPG6_Lj-14" value="partition-6" style="rounded=1;whiteSpace=wrap;html=1;fillColor=#d5e8d4;strokeColor=#82b366;" parent="1" vertex="1">
          <mxGeometry x="430" y="390" width="120" height="30" as="geometry" />
        </mxCell>
        <mxCell id="Nu1wtj4-nATQzFPG6_Lj-15" value="partition-7" style="rounded=1;whiteSpace=wrap;html=1;fillColor=#d5e8d4;strokeColor=#82b366;" parent="1" vertex="1">
          <mxGeometry x="430" y="420" width="120" height="30" as="geometry" />
        </mxCell>
        <mxCell id="Nu1wtj4-nATQzFPG6_Lj-17" value="topic = my-topic-2" style="text;html=1;align=center;verticalAlign=middle;whiteSpace=wrap;rounded=0;" parent="1" vertex="1">
          <mxGeometry x="420" y="170" width="140" height="30" as="geometry" />
        </mxCell>
        <mxCell id="8pgjZ3R_LGNqaTwt_QFV-1" value="" style="rounded=0;whiteSpace=wrap;html=1;" vertex="1" parent="1">
          <mxGeometry x="405" y="500" width="180" height="340" as="geometry" />
        </mxCell>
        <mxCell id="8pgjZ3R_LGNqaTwt_QFV-2" value="" style="rounded=0;whiteSpace=wrap;html=1;" vertex="1" parent="1">
          <mxGeometry x="85" y="500" width="180" height="190" as="geometry" />
        </mxCell>
        <mxCell id="8pgjZ3R_LGNqaTwt_QFV-3" style="rounded=0;orthogonalLoop=1;jettySize=auto;html=1;entryX=0;entryY=0.5;entryDx=0;entryDy=0;" edge="1" parent="1" source="8pgjZ3R_LGNqaTwt_QFV-5" target="8pgjZ3R_LGNqaTwt_QFV-16">
          <mxGeometry relative="1" as="geometry" />
        </mxCell>
        <mxCell id="8pgjZ3R_LGNqaTwt_QFV-4" style="rounded=0;orthogonalLoop=1;jettySize=auto;html=1;entryX=0;entryY=0.5;entryDx=0;entryDy=0;" edge="1" parent="1" source="8pgjZ3R_LGNqaTwt_QFV-5" target="8pgjZ3R_LGNqaTwt_QFV-17">
          <mxGeometry relative="1" as="geometry" />
        </mxCell>
        <mxCell id="8pgjZ3R_LGNqaTwt_QFV-5" value="consumer-1" style="rounded=1;whiteSpace=wrap;html=1;fillColor=#dae8fc;strokeColor=#6c8ebf;" vertex="1" parent="1">
          <mxGeometry x="115" y="550" width="120" height="30" as="geometry" />
        </mxCell>
        <mxCell id="8pgjZ3R_LGNqaTwt_QFV-6" style="rounded=0;orthogonalLoop=1;jettySize=auto;html=1;entryX=0;entryY=0.5;entryDx=0;entryDy=0;exitX=1;exitY=0.25;exitDx=0;exitDy=0;" edge="1" parent="1" source="8pgjZ3R_LGNqaTwt_QFV-8" target="8pgjZ3R_LGNqaTwt_QFV-18">
          <mxGeometry relative="1" as="geometry" />
        </mxCell>
        <mxCell id="8pgjZ3R_LGNqaTwt_QFV-7" style="rounded=0;orthogonalLoop=1;jettySize=auto;html=1;entryX=0;entryY=0.5;entryDx=0;entryDy=0;exitX=1;exitY=0.5;exitDx=0;exitDy=0;" edge="1" parent="1" source="8pgjZ3R_LGNqaTwt_QFV-8" target="8pgjZ3R_LGNqaTwt_QFV-19">
          <mxGeometry relative="1" as="geometry" />
        </mxCell>
        <mxCell id="8pgjZ3R_LGNqaTwt_QFV-8" value="consumer-2" style="rounded=1;whiteSpace=wrap;html=1;fillColor=#dae8fc;strokeColor=#6c8ebf;" vertex="1" parent="1">
          <mxGeometry x="115" y="580" width="120" height="30" as="geometry" />
        </mxCell>
        <mxCell id="8pgjZ3R_LGNqaTwt_QFV-9" style="rounded=0;orthogonalLoop=1;jettySize=auto;html=1;entryX=0;entryY=0.5;entryDx=0;entryDy=0;exitX=1;exitY=0.25;exitDx=0;exitDy=0;" edge="1" parent="1" source="8pgjZ3R_LGNqaTwt_QFV-11" target="8pgjZ3R_LGNqaTwt_QFV-20">
          <mxGeometry relative="1" as="geometry" />
        </mxCell>
        <mxCell id="8pgjZ3R_LGNqaTwt_QFV-10" style="rounded=0;orthogonalLoop=1;jettySize=auto;html=1;entryX=0;entryY=0.5;entryDx=0;entryDy=0;exitX=1;exitY=0.75;exitDx=0;exitDy=0;" edge="1" parent="1" source="8pgjZ3R_LGNqaTwt_QFV-11" target="8pgjZ3R_LGNqaTwt_QFV-21">
          <mxGeometry relative="1" as="geometry" />
        </mxCell>
        <mxCell id="8pgjZ3R_LGNqaTwt_QFV-11" value="consumer-3" style="rounded=1;whiteSpace=wrap;html=1;fillColor=#dae8fc;strokeColor=#6c8ebf;" vertex="1" parent="1">
          <mxGeometry x="115" y="610" width="120" height="30" as="geometry" />
        </mxCell>
        <mxCell id="8pgjZ3R_LGNqaTwt_QFV-12" style="rounded=0;orthogonalLoop=1;jettySize=auto;html=1;entryX=0;entryY=0.5;entryDx=0;entryDy=0;exitX=1;exitY=0.25;exitDx=0;exitDy=0;" edge="1" parent="1" source="8pgjZ3R_LGNqaTwt_QFV-14" target="8pgjZ3R_LGNqaTwt_QFV-22">
          <mxGeometry relative="1" as="geometry" />
        </mxCell>
        <mxCell id="8pgjZ3R_LGNqaTwt_QFV-13" style="rounded=0;orthogonalLoop=1;jettySize=auto;html=1;entryX=0;entryY=0.5;entryDx=0;entryDy=0;exitX=1;exitY=0.5;exitDx=0;exitDy=0;" edge="1" parent="1" source="8pgjZ3R_LGNqaTwt_QFV-14" target="8pgjZ3R_LGNqaTwt_QFV-23">
          <mxGeometry relative="1" as="geometry" />
        </mxCell>
        <mxCell id="8pgjZ3R_LGNqaTwt_QFV-26" style="rounded=0;orthogonalLoop=1;jettySize=auto;html=1;entryX=0;entryY=0.5;entryDx=0;entryDy=0;exitX=1;exitY=0.75;exitDx=0;exitDy=0;" edge="1" parent="1" source="8pgjZ3R_LGNqaTwt_QFV-14" target="8pgjZ3R_LGNqaTwt_QFV-25">
          <mxGeometry relative="1" as="geometry" />
        </mxCell>
        <mxCell id="8pgjZ3R_LGNqaTwt_QFV-14" value="consumer-4" style="rounded=1;whiteSpace=wrap;html=1;fillColor=#dae8fc;strokeColor=#6c8ebf;" vertex="1" parent="1">
          <mxGeometry x="115" y="640" width="120" height="30" as="geometry" />
        </mxCell>
        <mxCell id="8pgjZ3R_LGNqaTwt_QFV-15" value="group.id = consumer-group-3" style="text;html=1;align=center;verticalAlign=middle;whiteSpace=wrap;rounded=0;" vertex="1" parent="1">
          <mxGeometry x="85" y="510" width="180" height="30" as="geometry" />
        </mxCell>
        <mxCell id="8pgjZ3R_LGNqaTwt_QFV-16" value="partition-0" style="rounded=1;whiteSpace=wrap;html=1;fillColor=#d5e8d4;strokeColor=#82b366;" vertex="1" parent="1">
          <mxGeometry x="435" y="550" width="120" height="30" as="geometry" />
        </mxCell>
        <mxCell id="8pgjZ3R_LGNqaTwt_QFV-17" value="partition-1" style="rounded=1;whiteSpace=wrap;html=1;fillColor=#d5e8d4;strokeColor=#82b366;" vertex="1" parent="1">
          <mxGeometry x="435" y="580" width="120" height="30" as="geometry" />
        </mxCell>
        <mxCell id="8pgjZ3R_LGNqaTwt_QFV-18" value="partition-2" style="rounded=1;whiteSpace=wrap;html=1;fillColor=#d5e8d4;strokeColor=#82b366;" vertex="1" parent="1">
          <mxGeometry x="435" y="610" width="120" height="30" as="geometry" />
        </mxCell>
        <mxCell id="8pgjZ3R_LGNqaTwt_QFV-19" value="partition-3" style="rounded=1;whiteSpace=wrap;html=1;fillColor=#d5e8d4;strokeColor=#82b366;" vertex="1" parent="1">
          <mxGeometry x="435" y="640" width="120" height="30" as="geometry" />
        </mxCell>
        <mxCell id="8pgjZ3R_LGNqaTwt_QFV-20" value="partition-4" style="rounded=1;whiteSpace=wrap;html=1;fillColor=#d5e8d4;strokeColor=#82b366;" vertex="1" parent="1">
          <mxGeometry x="435" y="670" width="120" height="30" as="geometry" />
        </mxCell>
        <mxCell id="8pgjZ3R_LGNqaTwt_QFV-21" value="partition-5" style="rounded=1;whiteSpace=wrap;html=1;fillColor=#d5e8d4;strokeColor=#82b366;" vertex="1" parent="1">
          <mxGeometry x="435" y="700" width="120" height="30" as="geometry" />
        </mxCell>
        <mxCell id="8pgjZ3R_LGNqaTwt_QFV-22" value="partition-6" style="rounded=1;whiteSpace=wrap;html=1;fillColor=#d5e8d4;strokeColor=#82b366;" vertex="1" parent="1">
          <mxGeometry x="435" y="730" width="120" height="30" as="geometry" />
        </mxCell>
        <mxCell id="8pgjZ3R_LGNqaTwt_QFV-23" value="partition-7" style="rounded=1;whiteSpace=wrap;html=1;fillColor=#d5e8d4;strokeColor=#82b366;" vertex="1" parent="1">
          <mxGeometry x="435" y="760" width="120" height="30" as="geometry" />
        </mxCell>
        <mxCell id="8pgjZ3R_LGNqaTwt_QFV-24" value="topic = my-topic-3" style="text;html=1;align=center;verticalAlign=middle;whiteSpace=wrap;rounded=0;" vertex="1" parent="1">
          <mxGeometry x="425" y="510" width="140" height="30" as="geometry" />
        </mxCell>
        <mxCell id="8pgjZ3R_LGNqaTwt_QFV-25" value="partition-8" style="rounded=1;whiteSpace=wrap;html=1;fillColor=#d5e8d4;strokeColor=#82b366;" vertex="1" parent="1">
          <mxGeometry x="435" y="790" width="120" height="30" as="geometry" />
        </mxCell>
        <mxCell id="8pgjZ3R_LGNqaTwt_QFV-27" value="" style="rounded=0;whiteSpace=wrap;html=1;" vertex="1" parent="1">
          <mxGeometry x="400" y="-60" width="180" height="100" as="geometry" />
        </mxCell>
        <mxCell id="8pgjZ3R_LGNqaTwt_QFV-28" value="" style="rounded=0;whiteSpace=wrap;html=1;" vertex="1" parent="1">
          <mxGeometry x="80" y="-60" width="180" height="190" as="geometry" />
        </mxCell>
        <mxCell id="8pgjZ3R_LGNqaTwt_QFV-29" style="rounded=0;orthogonalLoop=1;jettySize=auto;html=1;entryX=0;entryY=0.5;entryDx=0;entryDy=0;" edge="1" parent="1" source="8pgjZ3R_LGNqaTwt_QFV-31" target="8pgjZ3R_LGNqaTwt_QFV-42">
          <mxGeometry relative="1" as="geometry" />
        </mxCell>
        <mxCell id="8pgjZ3R_LGNqaTwt_QFV-31" value="consumer-1" style="rounded=1;whiteSpace=wrap;html=1;fillColor=#dae8fc;strokeColor=#6c8ebf;" vertex="1" parent="1">
          <mxGeometry x="110" y="-10" width="120" height="30" as="geometry" />
        </mxCell>
        <mxCell id="8pgjZ3R_LGNqaTwt_QFV-34" value="consumer-2" style="rounded=1;whiteSpace=wrap;html=1;fillColor=#dae8fc;strokeColor=#6c8ebf;" vertex="1" parent="1">
          <mxGeometry x="110" y="20" width="120" height="30" as="geometry" />
        </mxCell>
        <mxCell id="8pgjZ3R_LGNqaTwt_QFV-37" value="consumer-3" style="rounded=1;whiteSpace=wrap;html=1;fillColor=#dae8fc;strokeColor=#6c8ebf;" vertex="1" parent="1">
          <mxGeometry x="110" y="50" width="120" height="30" as="geometry" />
        </mxCell>
        <mxCell id="8pgjZ3R_LGNqaTwt_QFV-40" value="consumer-4" style="rounded=1;whiteSpace=wrap;html=1;fillColor=#dae8fc;strokeColor=#6c8ebf;" vertex="1" parent="1">
          <mxGeometry x="110" y="80" width="120" height="30" as="geometry" />
        </mxCell>
        <mxCell id="8pgjZ3R_LGNqaTwt_QFV-41" value="group.id = consumer-group-1" style="text;html=1;align=center;verticalAlign=middle;whiteSpace=wrap;rounded=0;" vertex="1" parent="1">
          <mxGeometry x="80" y="-50" width="180" height="30" as="geometry" />
        </mxCell>
        <mxCell id="8pgjZ3R_LGNqaTwt_QFV-42" value="partition-0" style="rounded=1;whiteSpace=wrap;html=1;fillColor=#d5e8d4;strokeColor=#82b366;" vertex="1" parent="1">
          <mxGeometry x="430" y="-10" width="120" height="30" as="geometry" />
        </mxCell>
        <mxCell id="8pgjZ3R_LGNqaTwt_QFV-50" value="topic = my-topic-1" style="text;html=1;align=center;verticalAlign=middle;whiteSpace=wrap;rounded=0;" vertex="1" parent="1">
          <mxGeometry x="420" y="-50" width="140" height="30" as="geometry" />
        </mxCell>
      </root>
    </mxGraphModel>
  </diagram>
</mxfile>
